# xmcd
#
# Track frame offsets:
# 150
# 14535
# 27683
# 41093
# 59886
# 79868
# 94989
# 108602
# 127067
# 140756
# 156009
# 171882
# 186276
# 203189
# 217795
# 230641
# 248160
# 261383
#
# Disc length: 3687 seconds
#
#
# Revision: 0
# Processed by: cddbd v1.5.2PL0 Copyright (c) Steve Scherf et al.
# Submitted via: FreeRIP 2.945 
#
DISCID=190e6512
DTITLE=Henry-M - Stormy1
DYEAR=1963
DGENRE=Jungle
TTITLE0=St 101
TTITLE1=St 102
TTITLE2=St 103
TTITLE3=St 104
TTITLE4=St 105
TTITLE5=St 106
TTITLE6=St 107
TTITLE7=St 108
TTITLE8=St 109
TTITLE9=St 110
TTITLE10=St 111
TTITLE11=St 112
TTITLE12=St 113
TTITLE13=St 114
TTITLE14=St 115
TTITLE15=St 116
TTITLE16=St 117
TTITLE17=St 118
EXTD=Stormy, Misty's Foal by Marguerite Henry\nread by John McDonough 5 CDs 1963\nrecorded books
EXTT0=
EXTT1=
EXTT2=
EXTT3=
EXTT4=
EXTT5=
EXTT6=
EXTT7=
EXTT8=
EXTT9=
EXTT10=
EXTT11=
EXTT12=
EXTT13=
EXTT14=
EXTT15=
EXTT16=
EXTT17=
PLAYORDER=
